<?xml version="1.0" encoding="UTF-8" standalone="no"?>
<!-- Created with Inkscape (http://www.inkscape.org/) -->

<svg
   xmlns:dc="http://purl.org/dc/elements/1.1/"
   xmlns:cc="http://creativecommons.org/ns#"
   xmlns:rdf="http://www.w3.org/1999/02/22-rdf-syntax-ns#"
   xmlns:svg="http://www.w3.org/2000/svg"
   xmlns="http://www.w3.org/2000/svg"
   xmlns:sodipodi="http://sodipodi.sourceforge.net/DTD/sodipodi-0.dtd"
   xmlns:inkscape="http://www.inkscape.org/namespaces/inkscape"
   width="48"
   height="48"
   id="svg4700"
   version="1.1"
   inkscape:version="0.91 r"
   viewBox="0 0 48 48"
   sodipodi:docname="instagram.svg">
  <defs
     id="defs4702" />
  <sodipodi:namedview
     id="base"
     pagecolor="#ffffff"
     bordercolor="#666666"
     borderopacity="1.0"
     inkscape:pageopacity="0.0"
     inkscape:pageshadow="2"
     inkscape:zoom="7"
     inkscape:cx="1.8289886"
     inkscape:cy="24.004242"
     inkscape:current-layer="layer1-8"
     showgrid="true"
     inkscape:grid-bbox="true"
     inkscape:document-units="px"
     inkscape:window-width="1440"
     inkscape:window-height="846"
     inkscape:window-x="0"
     inkscape:window-y="24"
     inkscape:window-maximized="1" />
  <metadata
     id="metadata4705">
    <rdf:RDF>
      <cc:Work
         rdf:about="">
        <dc:format>image/svg+xml</dc:format>
        <dc:type
           rdf:resource="http://purl.org/dc/dcmitype/StillImage" />
        <dc:title></dc:title>
      </cc:Work>
    </rdf:RDF>
  </metadata>
  <g
     id="layer1"
     inkscape:label="Layer 1"
     inkscape:groupmode="layer">
    <g
       id="layer1-8"
       inkscape:label="Layer 1"
       transform="matrix(1.0666667,0,0,1.0666667,-138.89183,-761.92815)">
      <g
         transform="matrix(0.3515625,0,0,0.3515625,130.41197,714.3746)"
         id="_x37__stroke">
        <g
           id="Instagram_1_">
          <rect
             style="clip-rule:evenodd;fill:none;fill-rule:evenodd"
             y="0"
             x="0"
             height="128"
             width="128"
             id="rect4248" />
          <radialGradient
             cx="19.111099"
             cy="128.4444"
             gradientUnits="userSpaceOnUse"
             id="Instagram_2_"
             r="163.5519">
            <stop
               offset="0"
               style="stop-color:#FFB140"
               id="stop4251" />
            <stop
               offset="0.2559"
               style="stop-color:#FF5445"
               id="stop4253" />
            <stop
               offset="0.599"
               style="stop-color:#FC2B82"
               id="stop4255" />
            <stop
               offset="1"
               style="stop-color:#8E40B7"
               id="stop4257" />
          </radialGradient>
          <path
             style="clip-rule:evenodd;fill:url(#Instagram_2_);fill-rule:evenodd"
             inkscape:connector-curvature="0"
             d="m 105.843,29.837 c 0,4.242 -3.439,7.68 -7.68,7.68 -4.241,0 -7.68,-3.438 -7.68,-7.68 0,-4.242 3.439,-7.68 7.68,-7.68 4.242,0 7.68,3.438 7.68,7.68 z M 64,85.333 C 52.218,85.333 42.667,75.782 42.667,64 42.667,52.218 52.218,42.667 64,42.667 75.782,42.667 85.333,52.218 85.333,64 85.333,75.782 75.782,85.333 64,85.333 Z M 64,31.135 C 45.849,31.135 31.135,45.849 31.135,64 31.135,82.151 45.849,96.865 64,96.865 82.151,96.865 96.865,82.151 96.865,64 96.865,45.849 82.151,31.135 64,31.135 Z m 0,-19.603 c 17.089,0 19.113,0.065 25.861,0.373 6.24,0.285 9.629,1.327 11.884,2.204 2.987,1.161 5.119,2.548 7.359,4.788 2.24,2.239 3.627,4.371 4.788,7.359 0.876,2.255 1.919,5.644 2.204,11.884 0.308,6.749 0.373,8.773 0.373,25.862 0,17.089 -0.065,19.113 -0.373,25.861 -0.285,6.24 -1.327,9.629 -2.204,11.884 -1.161,2.987 -2.548,5.119 -4.788,7.359 -2.239,2.24 -4.371,3.627 -7.359,4.788 -2.255,0.876 -5.644,1.919 -11.884,2.204 -6.748,0.308 -8.772,0.373 -25.861,0.373 -17.09,0 -19.114,-0.065 -25.862,-0.373 -6.24,-0.285 -9.629,-1.327 -11.884,-2.204 -2.987,-1.161 -5.119,-2.548 -7.359,-4.788 -2.239,-2.239 -3.627,-4.371 -4.788,-7.359 C 13.231,99.492 12.188,96.103 11.903,89.863 11.595,83.114 11.53,81.09 11.53,64.002 c 0,-17.089 0.065,-19.113 0.373,-25.862 0.285,-6.24 1.327,-9.629 2.204,-11.884 1.161,-2.987 2.548,-5.119 4.788,-7.359 2.239,-2.24 4.371,-3.627 7.359,-4.788 2.255,-0.876 5.644,-1.919 11.884,-2.204 C 44.887,11.597 46.911,11.532 64,11.532 Z M 64,0 C 46.619,0 44.439,0.074 37.613,0.385 30.801,0.696 26.148,1.778 22.078,3.36 17.869,4.995 14.3,7.184 10.742,10.742 7.184,14.3 4.995,17.869 3.36,22.078 1.778,26.149 0.696,30.801 0.385,37.613 0.074,44.439 0,46.619 0,64 c 0,17.381 0.074,19.561 0.385,26.387 0.311,6.812 1.393,11.464 2.975,15.535 1.635,4.209 3.824,7.778 7.382,11.336 3.558,3.558 7.127,5.746 11.336,7.382 4.071,1.582 8.723,2.664 15.535,2.975 6.826,0.311 9.006,0.385 26.387,0.385 17.381,0 19.561,-0.074 26.387,-0.385 6.812,-0.311 11.464,-1.393 15.535,-2.975 4.209,-1.636 7.778,-3.824 11.336,-7.382 3.558,-3.558 5.746,-7.127 7.382,-11.336 1.582,-4.071 2.664,-8.723 2.975,-15.535 C 127.926,83.561 128,81.381 128,64 128,46.619 127.926,44.439 127.615,37.613 127.304,30.801 126.222,26.149 124.64,22.078 123.004,17.869 120.816,14.3 117.258,10.742 113.7,7.184 110.131,4.996 105.922,3.36 101.851,1.778 97.199,0.696 90.387,0.385 83.561,0.074 81.381,0 64,0 Z"
             id="Instagram" />
        </g>
      </g>
    </g>
  </g>
</svg>
