<?xml version="1.0" encoding="UTF-8" standalone="no"?>
<!-- Created with Inkscape (http://www.inkscape.org/) -->

<svg
   xmlns:dc="http://purl.org/dc/elements/1.1/"
   xmlns:cc="http://creativecommons.org/ns#"
   xmlns:rdf="http://www.w3.org/1999/02/22-rdf-syntax-ns#"
   xmlns:svg="http://www.w3.org/2000/svg"
   xmlns="http://www.w3.org/2000/svg"
   xmlns:sodipodi="http://sodipodi.sourceforge.net/DTD/sodipodi-0.dtd"
   xmlns:inkscape="http://www.inkscape.org/namespaces/inkscape"
   width="90"
   height="35"
   viewBox="0 0 90.000001 35.000001"
   id="svg5357"
   version="1.1"
   inkscape:version="0.91 r"
   sodipodi:docname="lairiel.svg">
  <defs
     id="defs5359" />
  <sodipodi:namedview
     id="base"
     pagecolor="#ffffff"
     bordercolor="#666666"
     borderopacity="1.0"
     inkscape:pageopacity="0.0"
     inkscape:pageshadow="2"
     inkscape:zoom="5.35"
     inkscape:cx="54.233128"
     inkscape:cy="19.87228"
     inkscape:document-units="px"
     inkscape:current-layer="layer1"
     showgrid="false"
     units="px"
     inkscape:window-width="1440"
     inkscape:window-height="846"
     inkscape:window-x="0"
     inkscape:window-y="24"
     inkscape:window-maximized="1" />
  <metadata
     id="metadata5362">
    <rdf:RDF>
      <cc:Work
         rdf:about="">
        <dc:format>image/svg+xml</dc:format>
        <dc:type
           rdf:resource="http://purl.org/dc/dcmitype/StillImage" />
        <dc:title></dc:title>
      </cc:Work>
    </rdf:RDF>
  </metadata>
  <g
     inkscape:label="Layer 1"
     inkscape:groupmode="layer"
     id="layer1"
     transform="translate(0,-1017.3622)">
    <g
       id="g4174"
       transform="matrix(0.56949021,0,0,0.64600438,23.5482,782.9062)"
       style="stroke:#5e5e5e;stroke-opacity:1;fill:#5e5e5e;fill-opacity:1">
      <path
         d="m -38.289287,363.65686 0,49.56875 15.95,0 0,1.99375 -18.21875,0 0,-51.5625 2.26875,0 z"
         style="font-style:normal;font-variant:normal;font-weight:normal;font-stretch:normal;font-size:medium;line-height:125%;font-family:'Poiret One';-inkscape-font-specification:'Poiret One';text-align:start;letter-spacing:0px;word-spacing:0px;writing-mode:lr-tb;text-anchor:start;fill:#5e5e5e;fill-opacity:1;stroke:#5e5e5e;stroke-width:1px;stroke-linecap:butt;stroke-linejoin:miter;stroke-opacity:1"
         id="path4153"
         inkscape:connector-curvature="0" />
      <path
         d="m 13.986494,384.28186 0,30.9375 -2.2,0 0,-7.7 q -1.9249996,3.91875 -5.7749996,6.1875 -3.85,2.26875 -8.25,2.26875 -6.7375,0 -11.5500004,-4.74375 -4.8125,-4.8125 -4.8125,-11.48125 0,-6.66875 4.8125,-11.4125 4.8125004,-4.8125 11.5500004,-4.8125 4.4,0 8.3875,2.3375 4.0562496,2.3375 5.6374996,6.1875 l 0,-7.76875 2.2,0 z m -30.3875,15.5375 q 0,5.775 4.19375,10.0375 4.2625004,4.19375 10.0375004,4.19375 5.84375,0 9.96875,-4.19375 4.1249996,-4.2625 4.1249996,-10.0375 0,-5.84375 -4.1937496,-10.10625 -4.125,-4.2625 -9.9,-4.2625 -5.775,0 -10.0375004,4.33125 -4.19375,4.2625 -4.19375,10.0375 z"
         style="font-style:normal;font-variant:normal;font-weight:normal;font-stretch:normal;font-size:medium;line-height:125%;font-family:'Poiret One';-inkscape-font-specification:'Poiret One';text-align:start;letter-spacing:0px;word-spacing:0px;writing-mode:lr-tb;text-anchor:start;fill:#5e5e5e;fill-opacity:1;stroke:#5e5e5e;stroke-width:1px;stroke-linecap:butt;stroke-linejoin:miter;stroke-opacity:1"
         id="path4155"
         inkscape:connector-curvature="0" />
      <path
         d="m 25.286201,384.35061 0,30.86875 -2.2,0 0,-30.86875 2.2,0 z m -1.1,-7.5625 q -1.99375,0 -1.99375,-1.85625 0,-1.85625 1.99375,-1.85625 1.99375,0 1.99375,1.85625 0,1.85625 -1.99375,1.85625 z"
         style="font-style:normal;font-variant:normal;font-weight:normal;font-stretch:normal;font-size:medium;line-height:125%;font-family:'Poiret One';-inkscape-font-specification:'Poiret One';text-align:start;letter-spacing:0px;word-spacing:0px;writing-mode:lr-tb;text-anchor:start;fill:#5e5e5e;fill-opacity:1;stroke:#5e5e5e;stroke-width:1px;stroke-linecap:butt;stroke-linejoin:miter;stroke-opacity:1"
         id="path4157"
         inkscape:connector-curvature="0" />
      <path
         d="m 52.49294,388.47561 q -3.025,-3.025 -6.66875,-3.025 -3.64375,0 -6.4625,2.75 -2.75,2.75 -2.75,6.39375 l 0,20.625 -2.2,0 0,-30.9375 2.2,0 0,4.60625 q 1.2375,-2.3375 3.85,-3.85 2.6125,-1.5125 5.84375,-1.5125 3.23125,0 6.1875,2.2 l 0,2.75 z"
         style="font-style:normal;font-variant:normal;font-weight:normal;font-stretch:normal;font-size:medium;line-height:125%;font-family:'Poiret One';-inkscape-font-specification:'Poiret One';text-align:start;letter-spacing:0px;word-spacing:0px;writing-mode:lr-tb;text-anchor:start;fill:#5e5e5e;fill-opacity:1;stroke:#5e5e5e;stroke-width:1px;stroke-linecap:butt;stroke-linejoin:miter;stroke-opacity:1"
         id="path4159"
         inkscape:connector-curvature="0" />
      <path
         d="m 61.406807,384.35061 0,30.86875 -2.2,0 0,-30.86875 2.2,0 z m -1.1,-7.5625 q -1.99375,0 -1.99375,-1.85625 0,-1.85625 1.99375,-1.85625 1.99375,0 1.99375,1.85625 0,1.85625 -1.99375,1.85625 z"
         style="font-style:normal;font-variant:normal;font-weight:normal;font-stretch:normal;font-size:medium;line-height:125%;font-family:'Poiret One';-inkscape-font-specification:'Poiret One';text-align:start;letter-spacing:0px;word-spacing:0px;writing-mode:lr-tb;text-anchor:start;fill:#5e5e5e;fill-opacity:1;stroke:#5e5e5e;stroke-width:1px;stroke-linecap:butt;stroke-linejoin:miter;stroke-opacity:1"
         id="path4161"
         inkscape:connector-curvature="0" />
      <path
         d="m 86.001045,416.04436 -0.61875,0 q -6.53125,0 -11.4125,-4.88125 -4.8125,-4.95 -4.8125,-11.48125 0,-6.53125 4.8125,-11.275 4.8125,-4.8125 11.89375,-4.8125 7.08125,0 12.16875,5.6375 l -21.5875,21.3125 q 4.46875,3.575 8.59375,3.575 4.125,0 7.35625,-1.85625 3.3,-1.925 5.43125,-5.0875 l 0,3.50625 q -4.88125,5.3625 -11.825,5.3625 z m -0.75625,-30.525 q -5.43125,0 -9.69375,4.2625 -4.19375,4.19375 -4.19375,9.69375 0,5.5 3.64375,9.625 l 20.00625,-19.86875 q -4.2625,-3.7125 -9.7625,-3.7125 z"
         style="font-style:normal;font-variant:normal;font-weight:normal;font-stretch:normal;font-size:medium;line-height:125%;font-family:'Poiret One';-inkscape-font-specification:'Poiret One';text-align:start;letter-spacing:0px;word-spacing:0px;writing-mode:lr-tb;text-anchor:start;fill:#5e5e5e;fill-opacity:1;stroke:#5e5e5e;stroke-width:1px;stroke-linecap:butt;stroke-linejoin:miter;stroke-opacity:1"
         id="path4163"
         inkscape:connector-curvature="0" />
      <path
         d="m 116.26071,413.91311 0,1.925 q -4.88125,0 -8.31875,-3.23125 -3.4375,-3.3 -3.4375,-8.3875 l 0,-40.5625 2.2,0 0,40.5625 q 0,4.19375 2.75,6.94375 2.81875,2.75 6.80625,2.75 z"
         style="font-style:normal;font-variant:normal;font-weight:normal;font-stretch:normal;font-size:medium;line-height:125%;font-family:'Poiret One';-inkscape-font-specification:'Poiret One';text-align:start;letter-spacing:0px;word-spacing:0px;writing-mode:lr-tb;text-anchor:start;fill:#5e5e5e;fill-opacity:1;stroke:#5e5e5e;stroke-width:1px;stroke-linecap:butt;stroke-linejoin:miter;stroke-opacity:1"
         id="path4165"
         inkscape:connector-curvature="0" />
    </g>
    <flowRoot
       xml:space="preserve"
       id="flowRoot4140"
       style="font-style:normal;font-variant:normal;font-weight:normal;font-stretch:normal;font-size:68.75px;line-height:125%;font-family:'Poiret One';-inkscape-font-specification:'Poiret One';text-align:start;letter-spacing:0px;word-spacing:0px;writing-mode:lr-tb;text-anchor:start;fill:#5e5e5e;fill-opacity:1;stroke:#5e5e5e;stroke-width:1px;stroke-linecap:butt;stroke-linejoin:miter;stroke-opacity:1;"
       transform="matrix(0.94634105,0,0,0.94634105,-51.654911,717.72455)"><flowRegion
         id="flowRegion4142"><rect
           id="rect4144"
           width="660"
           height="71.428574"
           x="-640"
           y="318.07648"
           style="font-style:normal;font-variant:normal;font-weight:normal;font-stretch:normal;font-family:'Poiret One';-inkscape-font-specification:'Poiret One';stroke:#5e5e5e;stroke-opacity:1;fill:#5e5e5e;fill-opacity:1;" /></flowRegion><flowPara
         id="flowPara4146" /></flowRoot>  </g>
</svg>
